<svg width="11" height="11" viewBox="0 0 11 11" fill="none" xmlns="http://www.w3.org/2000/svg">
<path d="M3.20801 5.04163H4.12467V5.95829H3.20801V5.04163ZM3.20801 6.87496H4.12467V7.79163H3.20801V6.87496ZM5.04134 5.04163H5.95801V5.95829H5.04134V5.04163ZM5.04134 6.87496H5.95801V7.79163H5.04134V6.87496ZM6.87467 5.04163H7.79134V5.95829H6.87467V5.04163ZM6.87467 6.87496H7.79134V7.79163H6.87467V6.87496Z" fill="#575757"/>
<path d="M2.29167 10.0833H8.70833C9.21388 10.0833 9.625 9.67217 9.625 9.16663V2.74996C9.625 2.24442 9.21388 1.83329 8.70833 1.83329H7.79167V0.916626H6.875V1.83329H4.125V0.916626H3.20833V1.83329H2.29167C1.78612 1.83329 1.375 2.24442 1.375 2.74996V9.16663C1.375 9.67217 1.78612 10.0833 2.29167 10.0833ZM8.70833 3.66663L8.70879 9.16663H2.29167V3.66663H8.70833Z" fill="#575757"/>
</svg>
