<svg width="9" height="9" viewBox="0 0 9 9" fill="none" xmlns="http://www.w3.org/2000/svg">
<path d="M6.7455 8.25C6.94441 8.25 7.13518 8.17098 7.27583 8.03033C7.41648 7.88968 7.4955 7.69891 7.4955 7.5V1.5C7.4955 1.30109 7.41648 1.11032 7.27583 0.96967C7.13518 0.829018 6.94441 0.75 6.7455 0.75H2.25C2.05109 0.75 1.86032 0.829018 1.71967 0.96967C1.57902 1.11032 1.5 1.30109 1.5 1.5V7.5C1.5 7.69891 1.57902 7.88968 1.71967 8.03033C1.86032 8.17098 2.05109 8.25 2.25 8.25H6.7455ZM3.375 1.875H5.625V2.625H3.375V1.875ZM5.34375 4.21875C5.34286 4.44229 5.25369 4.65642 5.09566 4.81452C4.93763 4.97262 4.72354 5.06189 4.5 5.06288C4.03688 5.06288 3.65625 4.68225 3.65625 4.21875C3.65625 3.75525 4.03688 3.375 4.5 3.375C4.7235 3.37589 4.9376 3.46507 5.09564 3.62311C5.25368 3.78115 5.34286 3.99525 5.34375 4.21875ZM2.8125 6.8205C2.8125 6.1965 3.573 5.55487 4.5 5.55487C5.427 5.55487 6.1875 6.1965 6.1875 6.8205V7.03162H2.8125V6.8205Z" fill="#575757"/>
</svg>
