<svg width="11" height="11" viewBox="0 0 11 11" fill="none" xmlns="http://www.w3.org/2000/svg">
<g clip-path="url(#clip0_246_546)">
<path d="M5.50033 0.916626C2.97308 0.916626 0.916992 2.97271 0.916992 5.49996C0.916992 8.02721 2.97308 10.0833 5.50033 10.0833C8.02758 10.0833 10.0837 8.02721 10.0837 5.49996C10.0837 2.97271 8.02758 0.916626 5.50033 0.916626ZM5.50033 9.16663C3.47862 9.16663 1.83366 7.52167 1.83366 5.49996C1.83366 3.47825 3.47862 1.83329 5.50033 1.83329C7.52203 1.83329 9.16699 3.47825 9.16699 5.49996C9.16699 7.52167 7.52203 9.16663 5.50033 9.16663Z" fill="#575757"/>
<path d="M5.95866 3.20837H5.04199V5.95837H7.79199V5.04171H5.95866V3.20837Z" fill="#575757"/>
</g>
<defs>
<clipPath id="clip0_246_546">
<rect width="11" height="11" fill="white"/>
</clipPath>
</defs>
</svg>
