<svg width="9" height="9" viewBox="0 0 9 9" fill="none" xmlns="http://www.w3.org/2000/svg">
<path d="M3.375 7.5H5.625V8.25H3.375V7.5ZM6.33975 5.142C6.726 4.68975 7.125 4.22213 7.125 3.375C7.125 1.92788 5.94712 0.75 4.5 0.75C3.05288 0.75 1.875 1.92788 1.875 3.375C1.875 4.23187 2.27512 4.698 2.66287 5.14875C2.79712 5.3055 2.93625 5.46788 3.06938 5.65462C3.12338 5.73187 3.21187 6.02812 3.291 6.375H3V7.125H6V6.375H5.70975C5.78962 6.02738 5.8785 5.73037 5.93213 5.65312C6.06413 5.4645 6.20438 5.30062 6.33975 5.142ZM5.31825 5.22188C5.1555 5.45325 5.01975 6 4.941 6.375H4.05937C3.981 5.99925 3.84488 5.45138 3.68025 5.22C3.53953 5.02663 3.38987 4.83992 3.23175 4.6605C2.8665 4.23525 2.625 3.954 2.625 3.375C2.625 2.34113 3.46613 1.5 4.5 1.5C5.53387 1.5 6.375 2.34113 6.375 3.375C6.375 3.94537 6.13387 4.22775 5.76938 4.65488C5.6295 4.81913 5.47088 5.00475 5.31825 5.22188Z" fill="#575757"/>
</svg>
