<svg width="9" height="9" viewBox="0 0 9 9" fill="none" xmlns="http://www.w3.org/2000/svg">
<path d="M3.5625 4.5C4.38975 4.5 5.0625 3.82725 5.0625 3C5.0625 2.17275 4.38975 1.5 3.5625 1.5C2.73525 1.5 2.0625 2.17275 2.0625 3C2.0625 3.82725 2.73525 4.5 3.5625 4.5ZM4.125 4.875H3C1.75912 4.875 0.75 5.88413 0.75 7.125V7.5H6.375V7.125C6.375 5.88413 5.36588 4.875 4.125 4.875Z" fill="#575757"/>
<path d="M6.22671 4.14299C6.4551 3.75377 6.55374 3.30198 6.50834 2.85299C6.44121 2.18399 6.06771 1.59261 5.45721 1.18799L5.04284 1.81274C5.46246 2.09099 5.71784 2.48736 5.76209 2.92799C5.78249 3.13278 5.757 3.33953 5.68746 3.53323C5.61792 3.72693 5.50608 3.90269 5.36009 4.04774L4.91309 4.49474L5.51984 4.67286C7.10684 5.13786 7.12521 6.73386 7.12521 6.74999H7.87521C7.87521 6.07911 7.51671 4.76811 6.22671 4.14299Z" fill="#575757"/>
</svg>
