<svg width="50" height="52" viewBox="0 0 50 52" fill="none" xmlns="http://www.w3.org/2000/svg">
<circle cx="25" cy="25" r="24.5" fill="white" stroke="#575757"/>
<path d="M24.707 15.293C24.6143 15.2 24.5041 15.1262 24.3827 15.076C24.2614 15.0257 24.1313 14.9999 24 15H19C18.8687 14.9999 18.7386 15.0257 18.6173 15.076C18.4959 15.1262 18.3857 15.2 18.293 15.293L15.293 18.293C15.2 18.3857 15.1262 18.4959 15.0759 18.6172C15.0256 18.7386 14.9998 18.8687 15 19V24C15 24.266 15.105 24.52 15.293 24.707L25.293 34.707C25.3857 34.8002 25.4958 34.8741 25.6171 34.9246C25.7385 34.9751 25.8686 35.001 26 35.001C26.1314 35.001 26.2615 34.9751 26.3829 34.9246C26.5042 34.8741 26.6143 34.8002 26.707 34.707L34.707 26.707C34.7999 26.6142 34.8737 26.504 34.924 26.3827C34.9743 26.2614 35.0002 26.1313 35.0002 26C35.0002 25.8687 34.9743 25.7386 34.924 25.6173C34.8737 25.496 34.7999 25.3858 34.707 25.293L24.707 15.293ZM26 32.586L17 23.586V19.414L19.414 17H23.586L32.586 26L26 32.586Z" fill="#727272"/>
<path d="M21.3531 23.0001C22.2627 23.0001 23.0001 22.2627 23.0001 21.3531C23.0001 20.4434 22.2627 19.7061 21.3531 19.7061C20.4434 19.7061 19.7061 20.4434 19.7061 21.3531C19.7061 22.2627 20.4434 23.0001 21.3531 23.0001Z" fill="#727272"/>
<path d="M40.0003 33.6666C35.4053 33.6666 31.667 37.405 31.667 42C31.667 46.595 35.4053 50.3333 40.0003 50.3333C44.5953 50.3333 48.3337 46.595 48.3337 42C48.3337 37.405 44.5953 33.6666 40.0003 33.6666ZM38.3345 45.6775L35.2403 42.59L36.417 41.41L38.3328 43.3225L42.7445 38.9108L43.9228 40.0891L38.3345 45.6775Z" fill="#31BB73"/>
</svg>
