<svg width="50" height="50" viewBox="0 0 50 50" fill="none" xmlns="http://www.w3.org/2000/svg">
<circle cx="25" cy="25" r="25" fill="#004AAD"/>
<path d="M28.999 21.5H30.999C30.999 18.663 28.244 17.369 25.999 17.071V15H23.999V17.071C21.754 17.369 18.999 18.663 18.999 21.5C18.999 24.206 21.665 25.613 23.999 25.93V30.9C22.551 30.649 20.999 29.876 20.999 28.5H18.999C18.999 31.089 21.424 32.619 23.999 32.936V35H25.999V32.93C28.244 32.632 30.999 31.337 30.999 28.5C30.999 25.663 28.244 24.369 25.999 24.071V19.1C27.329 19.339 28.999 20.041 28.999 21.5ZM20.999 21.5C20.999 20.041 22.669 19.339 23.999 19.1V23.899C22.628 23.646 20.999 22.897 20.999 21.5ZM28.999 28.5C28.999 29.959 27.329 30.661 25.999 30.9V26.1C27.329 26.339 28.999 27.041 28.999 28.5Z" fill="white"/>
</svg>
