<svg width="50" height="51" viewBox="0 0 50 51" fill="none" xmlns="http://www.w3.org/2000/svg">
<circle cx="25" cy="25" r="24.5" stroke="black" stroke-opacity="0.66"/>
<path d="M28 24H35V26H28V24ZM29 28H35V30H29V28ZM27 20H35V22H27V20ZM17 32H27V31C27 28.243 24.757 26 22 26H20C17.243 26 15 28.243 15 31V32H17ZM21 25C22.995 25 24.5 23.495 24.5 21.5C24.5 19.505 22.995 18 21 18C19.005 18 17.5 19.505 17.5 21.5C17.5 23.495 19.005 25 21 25Z" fill="black" fill-opacity="0.66"/>
<path d="M39.0003 32.6666C34.4053 32.6666 30.667 36.405 30.667 41C30.667 45.595 34.4053 49.3333 39.0003 49.3333C43.5953 49.3333 47.3337 45.595 47.3337 41C47.3337 36.405 43.5953 32.6666 39.0003 32.6666ZM37.3345 44.6775L34.2403 41.59L35.417 40.41L37.3328 42.3225L41.7445 37.9108L42.9228 39.0891L37.3345 44.6775Z" fill="#31BB73"/>
</svg>
