<svg width="9" height="9" viewBox="0 0 9 9" fill="none" xmlns="http://www.w3.org/2000/svg">
<path d="M4.49999 2.25C5.82636 2.25 7.06386 2.75738 7.98486 3.67838L8.51511 3.14813C7.45274 2.08538 6.02661 1.5 4.49999 1.5C2.97336 1.50038 1.54724 2.08538 0.484863 3.14813L1.01511 3.67838C1.93611 2.75738 3.17361 2.25 4.49999 2.25ZM6.62661 5.36513C5.47386 4.21238 3.52611 4.21238 2.37336 5.36513L2.90361 5.89537C3.76874 5.03025 5.23124 5.03025 6.09636 5.89537L6.62661 5.36513Z" fill="#575757"/>
<path d="M7.6638 4.23492C5.9493 2.51967 3.05093 2.51967 1.33643 4.23492L1.86668 4.76517C3.2943 3.33755 5.70593 3.33755 7.13355 4.76517L7.6638 4.23492Z" fill="#575757"/>
<path d="M4.5 7.5C4.91421 7.5 5.25 7.16421 5.25 6.75C5.25 6.33579 4.91421 6 4.5 6C4.08579 6 3.75 6.33579 3.75 6.75C3.75 7.16421 4.08579 7.5 4.5 7.5Z" fill="#575757"/>
</svg>
