<svg width="22" height="23" viewBox="0 0 22 23" fill="none" xmlns="http://www.w3.org/2000/svg">
<path d="M18.3333 2.875H3.66667C3.42355 2.875 3.19039 2.97597 3.01849 3.15569C2.84658 3.33541 2.75 3.57917 2.75 3.83333V19.1667C2.75 19.4208 2.84658 19.6646 3.01849 19.8443C3.19039 20.024 3.42355 20.125 3.66667 20.125H11.5638V13.455H9.42058V10.8435H11.5638V8.92687C11.5638 6.69875 12.8654 5.48454 14.7721 5.48454C15.4128 5.48263 16.0545 5.51712 16.6925 5.58708V7.90625H15.3771C14.3431 7.90625 14.1414 8.42183 14.1414 9.17604V10.8388H16.6137L16.2928 13.4502H14.1405V20.125H18.3333C18.5764 20.125 18.8096 20.024 18.9815 19.8443C19.1534 19.6646 19.25 19.4208 19.25 19.1667V3.83333C19.25 3.57917 19.1534 3.33541 18.9815 3.15569C18.8096 2.97597 18.5764 2.875 18.3333 2.875Z" fill="black"/>
</svg>
