<svg width="13" height="13" viewBox="0 0 13 13" fill="none" xmlns="http://www.w3.org/2000/svg">
<path d="M11.3747 2.16668H1.08301V3.25001H2.32884L4.10551 8.12501C4.21726 8.4411 4.42405 8.71489 4.69751 8.90884C4.97098 9.10279 5.29775 9.20741 5.63301 9.20835H10.2913V8.12501H5.63301C5.52169 8.12497 5.41309 8.09062 5.32198 8.02665C5.23087 7.96269 5.16169 7.8722 5.12384 7.76751L4.87467 7.04168H9.90134C10.1364 7.04134 10.365 6.96453 10.5527 6.82285C10.7403 6.68117 10.8767 6.4823 10.9413 6.25626L11.9163 2.8546C11.9384 2.78347 11.9455 2.70856 11.9372 2.63456C11.929 2.56056 11.9056 2.48904 11.8685 2.42449C11.8314 2.35993 11.7814 2.30372 11.7216 2.25936C11.6618 2.21501 11.5935 2.18346 11.5209 2.16668C11.4725 2.1588 11.4231 2.1588 11.3747 2.16668ZM9.88509 5.95835H4.46842L3.48259 3.25001H10.6543L9.88509 5.95835Z" fill="white"/>
<path d="M5.6875 11.375C6.13623 11.375 6.5 11.0112 6.5 10.5625C6.5 10.1138 6.13623 9.75 5.6875 9.75C5.23877 9.75 4.875 10.1138 4.875 10.5625C4.875 11.0112 5.23877 11.375 5.6875 11.375Z" fill="white"/>
<path d="M8.9375 11.375C9.38623 11.375 9.75 11.0112 9.75 10.5625C9.75 10.1138 9.38623 9.75 8.9375 9.75C8.48877 9.75 8.125 10.1138 8.125 10.5625C8.125 11.0112 8.48877 11.375 8.9375 11.375Z" fill="white"/>
</svg>
