<svg width="45" height="45" viewBox="0 0 45 45" fill="none" xmlns="http://www.w3.org/2000/svg">
<g clip-path="url(#clip0_269_355)">
<path d="M20.7422 4.92188L20.7422 6.67969C20.7422 7.66406 21.5156 8.4375 22.5 8.4375L27.7734 8.4375L27.7734 36.5625L25.6641 36.5625L22.5 36.5625C21.5156 36.5625 20.7422 37.3359 20.7422 38.3203L20.7422 40.0781C20.7422 42.0117 22.3242 43.5937 24.2578 43.5937L41.8359 43.5937C42.8203 43.5937 43.5937 42.8203 43.5937 41.8359L43.5937 38.3203C43.5937 37.3359 42.8203 36.5625 41.8359 36.5625L41.8359 8.4375C42.8203 8.4375 43.5937 7.66406 43.5937 6.67969L43.5937 3.16406C43.5937 2.17969 42.8203 1.40625 41.8359 1.40625L24.2578 1.40625C22.3242 1.40625 20.7422 2.98828 20.7422 4.92188Z" fill="#31BB73"/>
<path d="M28.125 36.5625L13.7109 36.5625C9.84375 36.5625 6.67969 33.3984 6.67969 29.5312L6.67969 15.4688C6.67969 11.6016 9.84375 8.4375 13.7109 8.4375L28.0195 8.4375" fill="#31BB73"/>
<path d="M20.5664 8.41016L21.4495 8.41016L20.9952 7.65291C20.8237 7.36721 20.7148 7.03321 20.7148 6.67969L20.7148 4.92187C20.7148 2.98317 22.3191 1.37891 24.2578 1.37891L41.8359 1.3789C42.8254 1.3789 43.6211 2.17458 43.6211 3.16406L43.6211 6.67969C43.6211 7.65436 42.9046 8.41146 41.9824 8.4657L41.1582 8.51418L41.583 9.22209C41.7544 9.50779 41.8633 9.84178 41.8633 10.1953L41.8633 34.8047C41.8633 35.1853 41.7759 35.5001 41.6021 35.7484L41.1075 36.455L41.9664 36.5331C42.8799 36.6161 43.6211 37.3944 43.6211 38.3203L43.6211 41.8359C43.6211 42.8254 42.8254 43.6211 41.8359 43.6211L24.2578 43.6211C22.3191 43.6211 20.7148 42.0168 20.7148 40.0781L20.7148 38.3203C20.7148 37.9668 20.8237 37.6328 20.9952 37.3471L21.4495 36.5898L20.5664 36.5898L13.7109 36.5898C9.80349 36.5898 6.65234 33.4387 6.65234 29.5312L6.65234 15.4687C6.65234 11.5613 9.80348 8.41016 13.7109 8.41016L20.5664 8.41016ZM34.4251 9.0793L34.818 9.5377L35.1951 9.06625C35.5239 8.65532 36.0141 8.41015 36.5625 8.41015L38.3203 8.41015L40.0781 8.41015L41.8359 8.41015C42.78 8.41015 43.5664 7.6238 43.5664 6.67969L43.5664 3.16406C43.5664 2.21995 42.78 1.43359 41.8359 1.43359L24.2578 1.43359C22.3293 1.43359 20.7695 2.99339 20.7695 4.92187L20.7695 6.67969C20.7695 7.6238 21.5559 8.41016 22.5 8.41016L25.6624 8.41016C25.6628 8.41029 25.6634 8.41052 25.6643 8.4109C25.668 8.41254 25.6738 8.41603 25.6796 8.42191C25.6855 8.42779 25.689 8.43354 25.6907 8.43728C25.6907 8.43735 25.6907 8.43744 25.6908 8.43751C25.6907 8.43758 25.6907 8.43765 25.6907 8.43772C25.689 8.44146 25.6855 8.44721 25.6796 8.45309C25.6771 8.45563 25.6746 8.45773 25.6722 8.45943C25.6692 8.46165 25.6664 8.46317 25.6643 8.4641C25.6634 8.46447 25.6628 8.46471 25.6624 8.46484L13.7109 8.46484C9.84886 8.46484 6.70703 11.6067 6.70703 15.4687L6.70703 29.5312C6.70703 33.3933 9.84886 36.5352 13.7109 36.5352L22.5 36.5352L24.2578 36.5352L25.6624 36.5352C25.6628 36.5353 25.6634 36.5355 25.6643 36.5359C25.668 36.5375 25.6738 36.541 25.6796 36.5469C25.6855 36.5528 25.689 36.5585 25.6907 36.5623C25.6907 36.5624 25.6907 36.5624 25.6908 36.5625C25.6907 36.5626 25.6907 36.5626 25.6907 36.5627C25.689 36.5665 25.6855 36.5722 25.6796 36.5781C25.6738 36.584 25.668 36.5875 25.6643 36.5891C25.6634 36.5895 25.6628 36.5897 25.6624 36.5898L24.2578 36.5898L22.5 36.5898C21.5559 36.5898 20.7695 37.3762 20.7695 38.3203L20.7695 40.0781C20.7695 42.0066 22.3293 43.5664 24.2578 43.5664L41.8359 43.5664C42.78 43.5664 43.5664 42.78 43.5664 41.8359L43.5664 38.3203C43.5664 37.3762 42.78 36.5898 41.8359 36.5898L40.0781 36.5898L39.2695 36.5898L36.5625 36.5898C35.573 36.5898 34.7773 35.7942 34.7773 34.8047L34.7773 10.1953C34.7773 9.2512 33.991 8.46484 33.0469 8.46484L29.5312 8.46484C28.5871 8.46484 27.8008 9.2512 27.8008 10.1953L27.8008 34.8047C27.8008 35.7488 28.5871 36.5352 29.5312 36.5352L33.0452 36.5352C33.0456 36.5353 33.0462 36.5355 33.0471 36.5359C33.0508 36.5375 33.0566 36.541 33.0625 36.5469C33.0683 36.5528 33.0718 36.5585 33.0735 36.5623C33.0735 36.5624 33.0735 36.5624 33.0736 36.5625C33.0735 36.5626 33.0735 36.5626 33.0735 36.5627C33.0718 36.5665 33.0683 36.5722 33.0625 36.5781C33.0566 36.584 33.0508 36.5875 33.0471 36.5891C33.0462 36.5895 33.0456 36.5897 33.0452 36.5898L29.5312 36.5898C28.5418 36.5898 27.7461 35.7942 27.7461 34.8047L27.7461 10.1953C27.7461 9.20583 28.5418 8.41016 29.5312 8.41016L33.0469 8.41016C33.581 8.41016 34.0821 8.67916 34.4251 9.0793ZM41.8086 34.8047L41.8086 10.1953C41.8086 9.2512 41.0222 8.46484 40.0781 8.46484L38.3203 8.46484L36.5625 8.46484C35.6184 8.46484 34.832 9.2512 34.832 10.1953L34.832 34.8047C34.832 35.7488 35.6184 36.5352 36.5625 36.5352L39.2695 36.5352L40.0781 36.5352C41.0222 36.5352 41.8086 35.7488 41.8086 34.8047Z" fill="#31BB73" stroke="white"/>
</g>
<defs>
<clipPath id="clip0_269_355">
<rect width="45" height="45" fill="white" transform="translate(0 45) rotate(-90)"/>
</clipPath>
</defs>
</svg>
