<svg width="45" height="45" viewBox="0 0 45 45" fill="none" xmlns="http://www.w3.org/2000/svg">
<g clip-path="url(#clip0_269_460)">
<path d="M20.2148 4.92187L20.2148 6.67969C20.2148 7.13672 20.3555 7.55859 20.5664 7.91016L13.7109 7.91016C9.52734 7.91016 6.15234 11.2852 6.15234 15.4688L6.15234 29.5312C6.15234 33.7148 9.52734 37.0898 13.7109 37.0898L20.5664 37.0898C20.3555 37.4414 20.2148 37.8633 20.2148 38.3203L20.2148 40.0781C20.2148 42.293 22.043 44.1211 24.2578 44.1211L41.8359 44.1211C43.1016 44.1211 44.1211 43.1016 44.1211 41.8359L44.1211 38.3203C44.1211 37.125 43.1719 36.1406 42.0117 36.0352C42.2578 35.6836 42.3633 35.2617 42.3633 34.8047L42.3633 10.1953C42.3633 9.73828 42.2227 9.3164 42.0117 8.96484C43.207 8.89453 44.1211 7.91015 44.1211 6.67969L44.1211 3.16406C44.1211 1.89844 43.1016 0.878905 41.8359 0.878905L24.2578 0.878905C22.043 0.878906 20.2148 2.70703 20.2148 4.92187ZM41.3086 10.1953L41.3086 34.8047C41.3086 35.4727 40.7461 36.0352 40.0781 36.0352L39.2695 36.0352L36.5625 36.0352C35.8945 36.0352 35.332 35.4727 35.332 34.8047L35.332 10.1953C35.332 9.52734 35.8945 8.96484 36.5625 8.96484L38.3203 8.96484L40.0781 8.96484C40.7461 8.96484 41.3086 9.52734 41.3086 10.1953ZM41.8359 1.93359C42.5039 1.93359 43.0664 2.49609 43.0664 3.16406L43.0664 6.67969C43.0664 7.34765 42.5039 7.91015 41.8359 7.91015L40.0781 7.91015L38.3203 7.91015L36.5625 7.91015C35.8594 7.91015 35.2266 8.22656 34.8047 8.7539C34.3828 8.26172 33.75 7.91016 33.0469 7.91016L29.5312 7.91016C28.2656 7.91016 27.2461 8.92969 27.2461 10.1953L27.2461 34.8047C27.2461 36.0703 28.2656 37.0898 29.5312 37.0898L33.0469 37.0898C33.3281 37.0898 33.5742 36.8437 33.5742 36.5625C33.5742 36.2812 33.3281 36.0352 33.0469 36.0352L29.5312 36.0352C28.8633 36.0352 28.3008 35.4727 28.3008 34.8047L28.3008 10.1953C28.3008 9.52734 28.8633 8.96484 29.5312 8.96484L33.0469 8.96484C33.7148 8.96484 34.2773 9.52734 34.2773 10.1953L34.2773 34.8047C34.2773 36.0703 35.2969 37.0898 36.5625 37.0898L39.2695 37.0898L40.0781 37.0898L41.8359 37.0898C42.5039 37.0898 43.0664 37.6523 43.0664 38.3203L43.0664 41.8359C43.0664 42.5039 42.5039 43.0664 41.8359 43.0664L24.2578 43.0664C22.6055 43.0664 21.2695 41.7305 21.2695 40.0781L21.2695 38.3203C21.2695 37.6523 21.832 37.0898 22.5 37.0898L24.2578 37.0898L25.6641 37.0898C25.9453 37.0898 26.1914 36.8437 26.1914 36.5625C26.1914 36.2812 25.9453 36.0352 25.6641 36.0352L24.2578 36.0352L22.5 36.0352L13.7109 36.0352C10.125 36.0352 7.20703 33.1172 7.20703 29.5312L7.20703 15.4687C7.20703 11.8828 10.125 8.96484 13.7109 8.96484L25.6641 8.96484C25.9453 8.96484 26.1914 8.71875 26.1914 8.4375C26.1914 8.15625 25.9453 7.91016 25.6641 7.91016L22.5 7.91016C21.832 7.91016 21.2695 7.34766 21.2695 6.67969L21.2695 4.92187C21.2695 3.26953 22.6055 1.93359 24.2578 1.93359L41.8359 1.93359Z" fill="#31BB73"/>
</g>
<defs>
<clipPath id="clip0_269_460">
<rect width="45" height="45" fill="white" transform="translate(0 45) rotate(-90)"/>
</clipPath>
</defs>
</svg>
